<svg width="106" height="57" viewBox="0 0 106 57" fill="none" xmlns="http://www.w3.org/2000/svg">
<path d="M23.8594 26.625V30H7.89062V26.625H23.8594ZM23.5625 9.76562L9.65625 30H6.70312V27.4219L20.6719 7.25H23.5625V9.76562ZM22.0312 7.25V10.6406H6.75V7.25H22.0312ZM33.9844 30.3125C32.7031 30.3125 31.5521 30.1042 30.5312 29.6875C29.5104 29.2708 28.6406 28.6927 27.9219 27.9531C27.2135 27.2031 26.6667 26.3333 26.2812 25.3438C25.9062 24.3438 25.7188 23.2708 25.7188 22.125V21.5C25.7188 20.1979 25.9062 19.0156 26.2812 17.9531C26.6562 16.8802 27.1875 15.9583 27.875 15.1875C28.5625 14.4167 29.3854 13.8229 30.3438 13.4062C31.3021 12.9896 32.3594 12.7812 33.5156 12.7812C34.7135 12.7812 35.7708 12.9844 36.6875 13.3906C37.6042 13.7865 38.3698 14.349 38.9844 15.0781C39.599 15.8073 40.0625 16.6823 40.375 17.7031C40.6875 18.7135 40.8438 19.8333 40.8438 21.0625V22.7969H27.5938V19.9531H36.7812V19.6406C36.7604 18.9844 36.6354 18.3854 36.4062 17.8438C36.1771 17.2917 35.8229 16.8542 35.3438 16.5312C34.8646 16.1979 34.2448 16.0312 33.4844 16.0312C32.8698 16.0312 32.3333 16.1667 31.875 16.4375C31.4271 16.6979 31.0521 17.0729 30.75 17.5625C30.4583 18.0417 30.2396 18.6146 30.0938 19.2812C29.9479 19.9479 29.875 20.6875 29.875 21.5V22.125C29.875 22.8333 29.9688 23.4896 30.1562 24.0938C30.3542 24.6979 30.6406 25.224 31.0156 25.6719C31.401 26.1094 31.8594 26.4531 32.3906 26.7031C32.9323 26.9427 33.5469 27.0625 34.2344 27.0625C35.099 27.0625 35.8802 26.8958 36.5781 26.5625C37.2865 26.2188 37.901 25.7135 38.4219 25.0469L40.5 27.2031C40.1458 27.724 39.6667 28.224 39.0625 28.7031C38.4688 29.1823 37.75 29.5729 36.9062 29.875C36.0625 30.1667 35.0885 30.3125 33.9844 30.3125ZM47.6562 16.7031V30H43.5312V13.0938H47.4062L47.6562 16.7031ZM47 20.9375H45.7812C45.7917 19.7083 45.9583 18.5938 46.2812 17.5938C46.6042 16.5938 47.0573 15.7344 47.6406 15.0156C48.2344 14.2969 48.9375 13.7448 49.75 13.3594C50.5625 12.974 51.4688 12.7812 52.4688 12.7812C53.2812 12.7812 54.0156 12.8958 54.6719 13.125C55.3281 13.3542 55.8906 13.7188 56.3594 14.2188C56.8385 14.7188 57.2031 15.375 57.4531 16.1875C57.7135 16.9896 57.8438 17.9792 57.8438 19.1562V30H53.6875V19.125C53.6875 18.3542 53.5729 17.7448 53.3438 17.2969C53.125 16.849 52.8021 16.5312 52.375 16.3438C51.9583 16.1562 51.4427 16.0625 50.8281 16.0625C50.1927 16.0625 49.6354 16.1927 49.1562 16.4531C48.6875 16.7031 48.2917 17.0521 47.9688 17.5C47.6562 17.9479 47.4167 18.4635 47.25 19.0469C47.0833 19.6302 47 20.2604 47 20.9375ZM82.625 21.7188V21.3906C82.625 20.151 82.8021 19.0104 83.1562 17.9688C83.5104 16.9167 84.026 16.0052 84.7031 15.2344C85.3802 14.4635 86.2083 13.8646 87.1875 13.4375C88.1667 13 89.2812 12.7812 90.5312 12.7812C91.8021 12.7812 92.9271 13 93.9062 13.4375C94.8958 13.8646 95.7292 14.4635 96.4062 15.2344C97.0833 16.0052 97.599 16.9167 97.9531 17.9688C98.3073 19.0104 98.4844 20.151 98.4844 21.3906V21.7188C98.4844 22.9479 98.3073 24.0885 97.9531 25.1406C97.599 26.1823 97.0833 27.0938 96.4062 27.875C95.7292 28.6458 94.901 29.2448 93.9219 29.6719C92.9427 30.099 91.8229 30.3125 90.5625 30.3125C89.3125 30.3125 88.1927 30.099 87.2031 29.6719C86.2135 29.2448 85.3802 28.6458 84.7031 27.875C84.026 27.0938 83.5104 26.1823 83.1562 25.1406C82.8021 24.0885 82.625 22.9479 82.625 21.7188ZM86.75 21.3906V21.7188C86.75 22.4583 86.8229 23.151 86.9688 23.7969C87.1146 24.4427 87.3385 25.0104 87.6406 25.5C87.9427 25.9896 88.3333 26.375 88.8125 26.6562C89.3021 26.9271 89.8854 27.0625 90.5625 27.0625C91.2292 27.0625 91.8021 26.9271 92.2812 26.6562C92.7604 26.375 93.151 25.9896 93.4531 25.5C93.7656 25.0104 93.9948 24.4427 94.1406 23.7969C94.2865 23.151 94.3594 22.4583 94.3594 21.7188V21.3906C94.3594 20.6615 94.2865 19.9792 94.1406 19.3438C93.9948 18.6979 93.7656 18.1302 93.4531 17.6406C93.151 17.1406 92.7552 16.75 92.2656 16.4688C91.7865 16.1771 91.2083 16.0312 90.5312 16.0312C89.8646 16.0312 89.2917 16.1771 88.8125 16.4688C88.3333 16.75 87.9427 17.1406 87.6406 17.6406C87.3385 18.1302 87.1146 18.6979 86.9688 19.3438C86.8229 19.9792 86.75 20.6615 86.75 21.3906Z" fill="black"/>
<path d="M77 16.4062L76.3125 20.3438H64.8594L65.5469 16.4062H77ZM68.7188 7.25L64.7656 30H59.8125L63.75 7.25H68.7188ZM82 7.25L78.0469 30H73.1094L77.0469 7.25H82Z" fill="#4206BA"/>
<path d="M4.55469 53H1.97656L1.99219 52.1797H4.55469C5.3724 52.1797 6.07552 51.9974 6.66406 51.6328C7.25781 51.263 7.71615 50.7526 8.03906 50.1016C8.36198 49.4505 8.52344 48.6953 8.52344 47.8359V46.7734C8.52344 46.1172 8.42969 45.5234 8.24219 44.9922C8.0599 44.4609 7.79688 44.0078 7.45312 43.6328C7.10938 43.2526 6.69792 42.9609 6.21875 42.7578C5.74479 42.5547 5.21354 42.4531 4.625 42.4531H1.92969V41.625H4.625C5.33333 41.625 5.98177 41.7474 6.57031 41.9922C7.16406 42.2318 7.67708 42.5807 8.10938 43.0391C8.54688 43.4922 8.88281 44.0365 9.11719 44.6719C9.35677 45.3073 9.47656 46.0156 9.47656 46.7969V47.8359C9.47656 48.6172 9.35677 49.3255 9.11719 49.9609C8.88281 50.5964 8.54688 51.1406 8.10938 51.5938C7.67188 52.0469 7.15365 52.3958 6.55469 52.6406C5.95573 52.8802 5.28906 53 4.55469 53ZM2.40625 41.625V53H1.44531V41.625H2.40625ZM12.75 44.5469V53H11.8203V44.5469H12.75ZM11.6562 42.1016C11.6562 41.9245 11.7109 41.776 11.8203 41.6562C11.9349 41.5312 12.0911 41.4688 12.2891 41.4688C12.487 41.4688 12.6432 41.5312 12.7578 41.6562C12.8776 41.776 12.9375 41.9245 12.9375 42.1016C12.9375 42.2734 12.8776 42.4219 12.7578 42.5469C12.6432 42.6667 12.487 42.7266 12.2891 42.7266C12.0911 42.7266 11.9349 42.6667 11.8203 42.5469C11.7109 42.4219 11.6562 42.2734 11.6562 42.1016ZM20.8672 44.5469H21.7344V52.8516C21.7344 53.5859 21.5938 54.2161 21.3125 54.7422C21.0365 55.2682 20.6432 55.6719 20.1328 55.9531C19.6276 56.2344 19.0312 56.375 18.3438 56.375C17.9948 56.375 17.6354 56.3203 17.2656 56.2109C16.901 56.1068 16.5547 55.9453 16.2266 55.7266C15.9036 55.513 15.6276 55.2474 15.3984 54.9297L15.9219 54.3594C16.2656 54.776 16.6328 55.0807 17.0234 55.2734C17.4141 55.4714 17.8359 55.5703 18.2891 55.5703C18.8255 55.5703 19.2786 55.4635 19.6484 55.25C20.0234 55.0365 20.3073 54.7292 20.5 54.3281C20.6979 53.9271 20.7969 53.4453 20.7969 52.8828V46.4062L20.8672 44.5469ZM14.9297 48.8594V48.6953C14.9297 48.0391 15.0026 47.4479 15.1484 46.9219C15.2995 46.3906 15.5156 45.9375 15.7969 45.5625C16.0781 45.1823 16.4193 44.8932 16.8203 44.6953C17.2266 44.4922 17.6849 44.3906 18.1953 44.3906C18.6849 44.3906 19.1198 44.4714 19.5 44.6328C19.8802 44.7943 20.2083 45.026 20.4844 45.3281C20.7604 45.6302 20.9818 45.9896 21.1484 46.4062C21.3203 46.8229 21.4453 47.2865 21.5234 47.7969V49.8828C21.4609 50.362 21.3464 50.8021 21.1797 51.2031C21.013 51.599 20.7917 51.9453 20.5156 52.2422C20.2396 52.5339 19.9062 52.7604 19.5156 52.9219C19.1302 53.0781 18.6849 53.1562 18.1797 53.1562C17.6745 53.1562 17.2214 53.0521 16.8203 52.8438C16.4193 52.6354 16.0781 52.3411 15.7969 51.9609C15.5156 51.5755 15.2995 51.1198 15.1484 50.5938C15.0026 50.0677 14.9297 49.4896 14.9297 48.8594ZM15.8672 48.6953V48.8594C15.8672 49.3542 15.9167 49.8125 16.0156 50.2344C16.1146 50.6562 16.2656 51.0234 16.4688 51.3359C16.6719 51.6484 16.9297 51.8932 17.2422 52.0703C17.5547 52.2474 17.9219 52.3359 18.3438 52.3359C18.8802 52.3359 19.3307 52.2344 19.6953 52.0312C20.0599 51.8229 20.349 51.5495 20.5625 51.2109C20.776 50.8672 20.9323 50.4922 21.0312 50.0859V47.6562C20.974 47.3802 20.8854 47.099 20.7656 46.8125C20.651 46.526 20.4896 46.263 20.2812 46.0234C20.0781 45.7786 19.8177 45.5833 19.5 45.4375C19.1875 45.2865 18.8073 45.2109 18.3594 45.2109C17.9323 45.2109 17.5599 45.2995 17.2422 45.4766C16.9297 45.6536 16.6719 45.901 16.4688 46.2188C16.2656 46.5312 16.1146 46.8984 16.0156 47.3203C15.9167 47.7422 15.8672 48.2005 15.8672 48.6953ZM25.2188 44.5469V53H24.2891V44.5469H25.2188ZM24.125 42.1016C24.125 41.9245 24.1797 41.776 24.2891 41.6562C24.4036 41.5312 24.5599 41.4688 24.7578 41.4688C24.9557 41.4688 25.112 41.5312 25.2266 41.6562C25.3464 41.776 25.4062 41.9245 25.4062 42.1016C25.4062 42.2734 25.3464 42.4219 25.2266 42.5469C25.112 42.6667 24.9557 42.7266 24.7578 42.7266C24.5599 42.7266 24.4036 42.6667 24.2891 42.5469C24.1797 42.4219 24.125 42.2734 24.125 42.1016ZM30.9688 44.5469V45.3125H26.7344V44.5469H30.9688ZM28.2891 42.375H29.2188V50.9453C29.2188 51.3359 29.2708 51.6302 29.375 51.8281C29.4792 52.026 29.6146 52.1589 29.7812 52.2266C29.9479 52.2943 30.1276 52.3281 30.3203 52.3281C30.4609 52.3281 30.5964 52.3203 30.7266 52.3047C30.8568 52.2839 30.974 52.263 31.0781 52.2422L31.1172 53.0312C31.0026 53.0677 30.8542 53.0964 30.6719 53.1172C30.4896 53.1432 30.3073 53.1562 30.125 53.1562C29.7656 53.1562 29.4479 53.0911 29.1719 52.9609C28.8958 52.8255 28.6797 52.5964 28.5234 52.2734C28.3672 51.9453 28.2891 51.5 28.2891 50.9375V42.375ZM38.0703 51.4844V47.125C38.0703 46.724 37.987 46.3776 37.8203 46.0859C37.6536 45.7943 37.4089 45.5703 37.0859 45.4141C36.763 45.2578 36.3646 45.1797 35.8906 45.1797C35.4531 45.1797 35.0625 45.2578 34.7188 45.4141C34.3802 45.5651 34.112 45.7708 33.9141 46.0312C33.7214 46.2865 33.625 46.5703 33.625 46.8828L32.6875 46.875C32.6875 46.5573 32.7656 46.25 32.9219 45.9531C33.0781 45.6562 33.2995 45.3906 33.5859 45.1562C33.8724 44.9219 34.2135 44.737 34.6094 44.6016C35.0104 44.4609 35.4505 44.3906 35.9297 44.3906C36.5339 44.3906 37.0651 44.4922 37.5234 44.6953C37.987 44.8984 38.349 45.2031 38.6094 45.6094C38.8698 46.0156 39 46.526 39 47.1406V51.2266C39 51.5182 39.0208 51.8203 39.0625 52.1328C39.1094 52.4453 39.1745 52.7031 39.2578 52.9062V53H38.2656C38.2031 52.8125 38.1536 52.5781 38.1172 52.2969C38.0859 52.0104 38.0703 51.7396 38.0703 51.4844ZM38.2891 48.0781L38.3047 48.7969H36.4688C35.9896 48.7969 35.5599 48.8411 35.1797 48.9297C34.8047 49.013 34.487 49.138 34.2266 49.3047C33.9661 49.4661 33.7656 49.6615 33.625 49.8906C33.4896 50.1198 33.4219 50.3802 33.4219 50.6719C33.4219 50.974 33.4974 51.25 33.6484 51.5C33.8047 51.75 34.0234 51.9505 34.3047 52.1016C34.5911 52.2474 34.9297 52.3203 35.3203 52.3203C35.8411 52.3203 36.2995 52.224 36.6953 52.0312C37.0964 51.8385 37.4271 51.5859 37.6875 51.2734C37.9479 50.9609 38.1224 50.6198 38.2109 50.25L38.6172 50.7891C38.5495 51.0495 38.4245 51.3177 38.2422 51.5938C38.0651 51.8646 37.8333 52.1198 37.5469 52.3594C37.2604 52.5938 36.9219 52.7865 36.5312 52.9375C36.1458 53.0833 35.7083 53.1562 35.2188 53.1562C34.6667 53.1562 34.1849 53.0521 33.7734 52.8438C33.3672 52.6354 33.0495 52.3516 32.8203 51.9922C32.5964 51.6276 32.4844 51.2161 32.4844 50.7578C32.4844 50.3411 32.5729 49.9688 32.75 49.6406C32.9271 49.3073 33.1823 49.026 33.5156 48.7969C33.8542 48.5625 34.2604 48.3854 34.7344 48.2656C35.2135 48.1406 35.75 48.0781 36.3438 48.0781H38.2891ZM42.5469 41V53H41.6172V41H42.5469ZM55.6641 50.2031C55.6641 49.8906 55.612 49.612 55.5078 49.3672C55.4036 49.1224 55.2318 48.9036 54.9922 48.7109C54.7578 48.513 54.4401 48.3307 54.0391 48.1641C53.6432 47.9922 53.1484 47.8229 52.5547 47.6562C51.987 47.4948 51.474 47.3177 51.0156 47.125C50.5573 46.9323 50.1641 46.7109 49.8359 46.4609C49.513 46.2109 49.2656 45.9193 49.0938 45.5859C48.9219 45.2474 48.8359 44.8542 48.8359 44.4062C48.8359 43.9688 48.9297 43.5703 49.1172 43.2109C49.3047 42.8516 49.5677 42.5417 49.9062 42.2812C50.25 42.0208 50.6536 41.8203 51.1172 41.6797C51.5859 41.5391 52.099 41.4688 52.6562 41.4688C53.4531 41.4688 54.1406 41.6198 54.7188 41.9219C55.3021 42.224 55.7526 42.6328 56.0703 43.1484C56.3932 43.6589 56.5547 44.2318 56.5547 44.8672H55.5938C55.5938 44.3724 55.4766 43.9323 55.2422 43.5469C55.013 43.1562 54.6797 42.8516 54.2422 42.6328C53.8099 42.4089 53.2812 42.2969 52.6562 42.2969C52.0312 42.2969 51.5052 42.3932 51.0781 42.5859C50.6562 42.7734 50.3359 43.026 50.1172 43.3438C49.9036 43.6562 49.7969 44.0052 49.7969 44.3906C49.7969 44.6615 49.849 44.9115 49.9531 45.1406C50.0573 45.3646 50.2266 45.5755 50.4609 45.7734C50.7005 45.9661 51.0156 46.1484 51.4062 46.3203C51.7969 46.487 52.2786 46.6458 52.8516 46.7969C53.4557 46.9635 53.9922 47.1484 54.4609 47.3516C54.9297 47.5547 55.3255 47.7891 55.6484 48.0547C55.9714 48.3151 56.2161 48.6198 56.3828 48.9688C56.5495 49.3177 56.6328 49.724 56.6328 50.1875C56.6328 50.651 56.5339 51.0677 56.3359 51.4375C56.1432 51.8021 55.8698 52.112 55.5156 52.3672C55.1667 52.6224 54.7526 52.8177 54.2734 52.9531C53.7995 53.0885 53.2812 53.1562 52.7188 53.1562C52.2135 53.1562 51.7109 53.0911 51.2109 52.9609C50.7109 52.8307 50.2526 52.6302 49.8359 52.3594C49.4245 52.0833 49.0938 51.7292 48.8438 51.2969C48.599 50.8646 48.4766 50.349 48.4766 49.75H49.4297C49.4297 50.2292 49.526 50.6328 49.7188 50.9609C49.9115 51.2891 50.1667 51.5547 50.4844 51.7578C50.8073 51.9609 51.1615 52.1094 51.5469 52.2031C51.9375 52.2917 52.3281 52.3359 52.7188 52.3359C53.3177 52.3359 53.8359 52.2474 54.2734 52.0703C54.7161 51.8932 55.0573 51.6458 55.2969 51.3281C55.5417 51.0052 55.6641 50.6302 55.6641 50.2031ZM57.9766 48.9062V48.6484C57.9766 48.0339 58.0651 47.4661 58.2422 46.9453C58.4193 46.4245 58.6719 45.974 59 45.5938C59.3333 45.2135 59.7318 44.9193 60.1953 44.7109C60.6589 44.4974 61.1745 44.3906 61.7422 44.3906C62.3151 44.3906 62.8333 44.4974 63.2969 44.7109C63.7604 44.9193 64.1589 45.2135 64.4922 45.5938C64.8255 45.974 65.0807 46.4245 65.2578 46.9453C65.4349 47.4661 65.5234 48.0339 65.5234 48.6484V48.9062C65.5234 49.5208 65.4349 50.0885 65.2578 50.6094C65.0807 51.125 64.8255 51.5729 64.4922 51.9531C64.1641 52.3333 63.7682 52.6302 63.3047 52.8438C62.8411 53.0521 62.3255 53.1562 61.7578 53.1562C61.1849 53.1562 60.6667 53.0521 60.2031 52.8438C59.7396 52.6302 59.3411 52.3333 59.0078 51.9531C58.6745 51.5729 58.4193 51.125 58.2422 50.6094C58.0651 50.0885 57.9766 49.5208 57.9766 48.9062ZM58.9062 48.6484V48.9062C58.9062 49.3698 58.9688 49.8099 59.0938 50.2266C59.2188 50.638 59.401 51.0052 59.6406 51.3281C59.8802 51.6458 60.1771 51.8958 60.5312 52.0781C60.8854 52.2604 61.2943 52.3516 61.7578 52.3516C62.2161 52.3516 62.6198 52.2604 62.9688 52.0781C63.3229 51.8958 63.6198 51.6458 63.8594 51.3281C64.099 51.0052 64.2786 50.638 64.3984 50.2266C64.5234 49.8099 64.5859 49.3698 64.5859 48.9062V48.6484C64.5859 48.1901 64.5234 47.7552 64.3984 47.3438C64.2786 46.9323 64.0964 46.5651 63.8516 46.2422C63.612 45.9193 63.3151 45.6641 62.9609 45.4766C62.6068 45.2891 62.2005 45.1953 61.7422 45.1953C61.2839 45.1953 60.8776 45.2891 60.5234 45.4766C60.1745 45.6641 59.8776 45.9193 59.6328 46.2422C59.3932 46.5651 59.2109 46.9323 59.0859 47.3438C58.9661 47.7552 58.9062 48.1901 58.9062 48.6484ZM68.5 41V53H67.5703V41H68.5ZM76.4688 51.0469V44.5469H77.4062V53H76.5078L76.4688 51.0469ZM76.6406 49.4844L77.125 49.4688C77.125 50 77.0625 50.4896 76.9375 50.9375C76.8125 51.3854 76.6172 51.776 76.3516 52.1094C76.0859 52.4427 75.7422 52.7005 75.3203 52.8828C74.8984 53.0651 74.3906 53.1562 73.7969 53.1562C73.3854 53.1562 73.0078 53.099 72.6641 52.9844C72.3255 52.8646 72.0339 52.6771 71.7891 52.4219C71.5443 52.1667 71.3542 51.8359 71.2188 51.4297C71.0885 51.0234 71.0234 50.5312 71.0234 49.9531V44.5469H71.9531V49.9688C71.9531 50.4219 72.0026 50.7995 72.1016 51.1016C72.2057 51.4036 72.3464 51.6458 72.5234 51.8281C72.7057 52.0104 72.9141 52.1406 73.1484 52.2188C73.3828 52.2969 73.6354 52.3359 73.9062 52.3359C74.5938 52.3359 75.1354 52.2031 75.5312 51.9375C75.9323 51.6719 76.2161 51.3229 76.3828 50.8906C76.5547 50.4531 76.6406 49.9844 76.6406 49.4844ZM83.0469 44.5469V45.3125H78.8125V44.5469H83.0469ZM80.3672 42.375H81.2969V50.9453C81.2969 51.3359 81.349 51.6302 81.4531 51.8281C81.5573 52.026 81.6927 52.1589 81.8594 52.2266C82.026 52.2943 82.2057 52.3281 82.3984 52.3281C82.5391 52.3281 82.6745 52.3203 82.8047 52.3047C82.9349 52.2839 83.0521 52.263 83.1562 52.2422L83.1953 53.0312C83.0807 53.0677 82.9323 53.0964 82.75 53.1172C82.5677 53.1432 82.3854 53.1562 82.2031 53.1562C81.8438 53.1562 81.526 53.0911 81.25 52.9609C80.974 52.8255 80.7578 52.5964 80.6016 52.2734C80.4453 51.9453 80.3672 51.5 80.3672 50.9375V42.375ZM86.0469 44.5469V53H85.1172V44.5469H86.0469ZM84.9531 42.1016C84.9531 41.9245 85.0078 41.776 85.1172 41.6562C85.2318 41.5312 85.388 41.4688 85.5859 41.4688C85.7839 41.4688 85.9401 41.5312 86.0547 41.6562C86.1745 41.776 86.2344 41.9245 86.2344 42.1016C86.2344 42.2734 86.1745 42.4219 86.0547 42.5469C85.9401 42.6667 85.7839 42.7266 85.5859 42.7266C85.388 42.7266 85.2318 42.6667 85.1172 42.5469C85.0078 42.4219 84.9531 42.2734 84.9531 42.1016ZM88.0859 48.9062V48.6484C88.0859 48.0339 88.1745 47.4661 88.3516 46.9453C88.5286 46.4245 88.7812 45.974 89.1094 45.5938C89.4427 45.2135 89.8411 44.9193 90.3047 44.7109C90.7682 44.4974 91.2839 44.3906 91.8516 44.3906C92.4245 44.3906 92.9427 44.4974 93.4062 44.7109C93.8698 44.9193 94.2682 45.2135 94.6016 45.5938C94.9349 45.974 95.1901 46.4245 95.3672 46.9453C95.5443 47.4661 95.6328 48.0339 95.6328 48.6484V48.9062C95.6328 49.5208 95.5443 50.0885 95.3672 50.6094C95.1901 51.125 94.9349 51.5729 94.6016 51.9531C94.2734 52.3333 93.8776 52.6302 93.4141 52.8438C92.9505 53.0521 92.4349 53.1562 91.8672 53.1562C91.2943 53.1562 90.776 53.0521 90.3125 52.8438C89.849 52.6302 89.4505 52.3333 89.1172 51.9531C88.7839 51.5729 88.5286 51.125 88.3516 50.6094C88.1745 50.0885 88.0859 49.5208 88.0859 48.9062ZM89.0156 48.6484V48.9062C89.0156 49.3698 89.0781 49.8099 89.2031 50.2266C89.3281 50.638 89.5104 51.0052 89.75 51.3281C89.9896 51.6458 90.2865 51.8958 90.6406 52.0781C90.9948 52.2604 91.4036 52.3516 91.8672 52.3516C92.3255 52.3516 92.7292 52.2604 93.0781 52.0781C93.4323 51.8958 93.7292 51.6458 93.9688 51.3281C94.2083 51.0052 94.388 50.638 94.5078 50.2266C94.6328 49.8099 94.6953 49.3698 94.6953 48.9062V48.6484C94.6953 48.1901 94.6328 47.7552 94.5078 47.3438C94.388 46.9323 94.2057 46.5651 93.9609 46.2422C93.7214 45.9193 93.4245 45.6641 93.0703 45.4766C92.7161 45.2891 92.3099 45.1953 91.8516 45.1953C91.3932 45.1953 90.987 45.2891 90.6328 45.4766C90.2839 45.6641 89.987 45.9193 89.7422 46.2422C89.5026 46.5651 89.3203 46.9323 89.1953 47.3438C89.0755 47.7552 89.0156 48.1901 89.0156 48.6484ZM98.5 46.3516V53H97.5703V44.5469H98.4609L98.5 46.3516ZM98.2891 48.25L97.875 48.0156C97.9062 47.5156 98.0078 47.0469 98.1797 46.6094C98.3516 46.1719 98.5833 45.7865 98.875 45.4531C99.1719 45.1198 99.5182 44.8594 99.9141 44.6719C100.315 44.4844 100.758 44.3906 101.242 44.3906C101.664 44.3906 102.042 44.4479 102.375 44.5625C102.708 44.6771 102.992 44.8594 103.227 45.1094C103.461 45.3594 103.638 45.6797 103.758 46.0703C103.883 46.4609 103.945 46.9375 103.945 47.5V53H103.008V47.4922C103.008 46.9089 102.927 46.4531 102.766 46.125C102.604 45.7917 102.375 45.5547 102.078 45.4141C101.781 45.2734 101.43 45.2031 101.023 45.2031C100.576 45.2031 100.182 45.3021 99.8438 45.5C99.5104 45.6927 99.2292 45.9453 99 46.2578C98.776 46.5651 98.6042 46.8958 98.4844 47.25C98.3646 47.599 98.2995 47.9323 98.2891 48.25Z" fill="black"/>
</svg>
