<svg width="146" height="97" viewBox="0 0 146 97" fill="none" xmlns="http://www.w3.org/2000/svg">
<rect width="146" height="97" fill="white"/>
<path d="M43.8594 46.625V50H27.8906V46.625H43.8594ZM43.5625 29.7656L29.6562 50H26.7031V47.4219L40.6719 27.25H43.5625V29.7656ZM42.0312 27.25V30.6406H26.75V27.25H42.0312ZM53.9844 50.3125C52.7031 50.3125 51.5521 50.1042 50.5312 49.6875C49.5104 49.2708 48.6406 48.6927 47.9219 47.9531C47.2135 47.2031 46.6667 46.3333 46.2812 45.3438C45.9062 44.3438 45.7188 43.2708 45.7188 42.125V41.5C45.7188 40.1979 45.9062 39.0156 46.2812 37.9531C46.6562 36.8802 47.1875 35.9583 47.875 35.1875C48.5625 34.4167 49.3854 33.8229 50.3438 33.4062C51.3021 32.9896 52.3594 32.7812 53.5156 32.7812C54.7135 32.7812 55.7708 32.9844 56.6875 33.3906C57.6042 33.7865 58.3698 34.349 58.9844 35.0781C59.599 35.8073 60.0625 36.6823 60.375 37.7031C60.6875 38.7135 60.8438 39.8333 60.8438 41.0625V42.7969H47.5938V39.9531H56.7812V39.6406C56.7604 38.9844 56.6354 38.3854 56.4062 37.8438C56.1771 37.2917 55.8229 36.8542 55.3438 36.5312C54.8646 36.1979 54.2448 36.0312 53.4844 36.0312C52.8698 36.0312 52.3333 36.1667 51.875 36.4375C51.4271 36.6979 51.0521 37.0729 50.75 37.5625C50.4583 38.0417 50.2396 38.6146 50.0938 39.2812C49.9479 39.9479 49.875 40.6875 49.875 41.5V42.125C49.875 42.8333 49.9688 43.4896 50.1562 44.0938C50.3542 44.6979 50.6406 45.224 51.0156 45.6719C51.401 46.1094 51.8594 46.4531 52.3906 46.7031C52.9323 46.9427 53.5469 47.0625 54.2344 47.0625C55.099 47.0625 55.8802 46.8958 56.5781 46.5625C57.2865 46.2188 57.901 45.7135 58.4219 45.0469L60.5 47.2031C60.1458 47.724 59.6667 48.224 59.0625 48.7031C58.4688 49.1823 57.75 49.5729 56.9062 49.875C56.0625 50.1667 55.0885 50.3125 53.9844 50.3125ZM67.6562 36.7031V50H63.5312V33.0938H67.4062L67.6562 36.7031ZM67 40.9375H65.7812C65.7917 39.7083 65.9583 38.5938 66.2812 37.5938C66.6042 36.5938 67.0573 35.7344 67.6406 35.0156C68.2344 34.2969 68.9375 33.7448 69.75 33.3594C70.5625 32.974 71.4688 32.7812 72.4688 32.7812C73.2812 32.7812 74.0156 32.8958 74.6719 33.125C75.3281 33.3542 75.8906 33.7188 76.3594 34.2188C76.8385 34.7188 77.2031 35.375 77.4531 36.1875C77.7135 36.9896 77.8438 37.9792 77.8438 39.1562V50H73.6875V39.125C73.6875 38.3542 73.5729 37.7448 73.3438 37.2969C73.125 36.849 72.8021 36.5312 72.375 36.3438C71.9583 36.1562 71.4427 36.0625 70.8281 36.0625C70.1927 36.0625 69.6354 36.1927 69.1562 36.4531C68.6875 36.7031 68.2917 37.0521 67.9688 37.5C67.6562 37.9479 67.4167 38.4635 67.25 39.0469C67.0833 39.6302 67 40.2604 67 40.9375ZM102.625 41.7188V41.3906C102.625 40.151 102.802 39.0104 103.156 37.9688C103.51 36.9167 104.026 36.0052 104.703 35.2344C105.38 34.4635 106.208 33.8646 107.188 33.4375C108.167 33 109.281 32.7812 110.531 32.7812C111.802 32.7812 112.927 33 113.906 33.4375C114.896 33.8646 115.729 34.4635 116.406 35.2344C117.083 36.0052 117.599 36.9167 117.953 37.9688C118.307 39.0104 118.484 40.151 118.484 41.3906V41.7188C118.484 42.9479 118.307 44.0885 117.953 45.1406C117.599 46.1823 117.083 47.0938 116.406 47.875C115.729 48.6458 114.901 49.2448 113.922 49.6719C112.943 50.099 111.823 50.3125 110.562 50.3125C109.312 50.3125 108.193 50.099 107.203 49.6719C106.214 49.2448 105.38 48.6458 104.703 47.875C104.026 47.0938 103.51 46.1823 103.156 45.1406C102.802 44.0885 102.625 42.9479 102.625 41.7188ZM106.75 41.3906V41.7188C106.75 42.4583 106.823 43.151 106.969 43.7969C107.115 44.4427 107.339 45.0104 107.641 45.5C107.943 45.9896 108.333 46.375 108.812 46.6562C109.302 46.9271 109.885 47.0625 110.562 47.0625C111.229 47.0625 111.802 46.9271 112.281 46.6562C112.76 46.375 113.151 45.9896 113.453 45.5C113.766 45.0104 113.995 44.4427 114.141 43.7969C114.286 43.151 114.359 42.4583 114.359 41.7188V41.3906C114.359 40.6615 114.286 39.9792 114.141 39.3438C113.995 38.6979 113.766 38.1302 113.453 37.6406C113.151 37.1406 112.755 36.75 112.266 36.4688C111.786 36.1771 111.208 36.0312 110.531 36.0312C109.865 36.0312 109.292 36.1771 108.812 36.4688C108.333 36.75 107.943 37.1406 107.641 37.6406C107.339 38.1302 107.115 38.6979 106.969 39.3438C106.823 39.9792 106.75 40.6615 106.75 41.3906Z" fill="black"/>
<path d="M97 36.4062L96.3125 40.3438H84.8594L85.5469 36.4062H97ZM88.7188 27.25L84.7656 50H79.8125L83.75 27.25H88.7188ZM102 27.25L98.0469 50H93.1094L97.0469 27.25H102Z" fill="#4206BA"/>
<path d="M24.5547 73H21.9766L21.9922 72.1797H24.5547C25.3724 72.1797 26.0755 71.9974 26.6641 71.6328C27.2578 71.263 27.7161 70.7526 28.0391 70.1016C28.362 69.4505 28.5234 68.6953 28.5234 67.8359V66.7734C28.5234 66.1172 28.4297 65.5234 28.2422 64.9922C28.0599 64.4609 27.7969 64.0078 27.4531 63.6328C27.1094 63.2526 26.6979 62.9609 26.2188 62.7578C25.7448 62.5547 25.2135 62.4531 24.625 62.4531H21.9297V61.625H24.625C25.3333 61.625 25.9818 61.7474 26.5703 61.9922C27.1641 62.2318 27.6771 62.5807 28.1094 63.0391C28.5469 63.4922 28.8828 64.0365 29.1172 64.6719C29.3568 65.3073 29.4766 66.0156 29.4766 66.7969V67.8359C29.4766 68.6172 29.3568 69.3255 29.1172 69.9609C28.8828 70.5964 28.5469 71.1406 28.1094 71.5938C27.6719 72.0469 27.1536 72.3958 26.5547 72.6406C25.9557 72.8802 25.2891 73 24.5547 73ZM22.4062 61.625V73H21.4453V61.625H22.4062ZM32.75 64.5469V73H31.8203V64.5469H32.75ZM31.6562 62.1016C31.6562 61.9245 31.7109 61.776 31.8203 61.6562C31.9349 61.5312 32.0911 61.4688 32.2891 61.4688C32.487 61.4688 32.6432 61.5312 32.7578 61.6562C32.8776 61.776 32.9375 61.9245 32.9375 62.1016C32.9375 62.2734 32.8776 62.4219 32.7578 62.5469C32.6432 62.6667 32.487 62.7266 32.2891 62.7266C32.0911 62.7266 31.9349 62.6667 31.8203 62.5469C31.7109 62.4219 31.6562 62.2734 31.6562 62.1016ZM40.8672 64.5469H41.7344V72.8516C41.7344 73.5859 41.5938 74.2161 41.3125 74.7422C41.0365 75.2682 40.6432 75.6719 40.1328 75.9531C39.6276 76.2344 39.0312 76.375 38.3438 76.375C37.9948 76.375 37.6354 76.3203 37.2656 76.2109C36.901 76.1068 36.5547 75.9453 36.2266 75.7266C35.9036 75.513 35.6276 75.2474 35.3984 74.9297L35.9219 74.3594C36.2656 74.776 36.6328 75.0807 37.0234 75.2734C37.4141 75.4714 37.8359 75.5703 38.2891 75.5703C38.8255 75.5703 39.2786 75.4635 39.6484 75.25C40.0234 75.0365 40.3073 74.7292 40.5 74.3281C40.6979 73.9271 40.7969 73.4453 40.7969 72.8828V66.4062L40.8672 64.5469ZM34.9297 68.8594V68.6953C34.9297 68.0391 35.0026 67.4479 35.1484 66.9219C35.2995 66.3906 35.5156 65.9375 35.7969 65.5625C36.0781 65.1823 36.4193 64.8932 36.8203 64.6953C37.2266 64.4922 37.6849 64.3906 38.1953 64.3906C38.6849 64.3906 39.1198 64.4714 39.5 64.6328C39.8802 64.7943 40.2083 65.026 40.4844 65.3281C40.7604 65.6302 40.9818 65.9896 41.1484 66.4062C41.3203 66.8229 41.4453 67.2865 41.5234 67.7969V69.8828C41.4609 70.362 41.3464 70.8021 41.1797 71.2031C41.013 71.599 40.7917 71.9453 40.5156 72.2422C40.2396 72.5339 39.9062 72.7604 39.5156 72.9219C39.1302 73.0781 38.6849 73.1562 38.1797 73.1562C37.6745 73.1562 37.2214 73.0521 36.8203 72.8438C36.4193 72.6354 36.0781 72.3411 35.7969 71.9609C35.5156 71.5755 35.2995 71.1198 35.1484 70.5938C35.0026 70.0677 34.9297 69.4896 34.9297 68.8594ZM35.8672 68.6953V68.8594C35.8672 69.3542 35.9167 69.8125 36.0156 70.2344C36.1146 70.6562 36.2656 71.0234 36.4688 71.3359C36.6719 71.6484 36.9297 71.8932 37.2422 72.0703C37.5547 72.2474 37.9219 72.3359 38.3438 72.3359C38.8802 72.3359 39.3307 72.2344 39.6953 72.0312C40.0599 71.8229 40.349 71.5495 40.5625 71.2109C40.776 70.8672 40.9323 70.4922 41.0312 70.0859V67.6562C40.974 67.3802 40.8854 67.099 40.7656 66.8125C40.651 66.526 40.4896 66.263 40.2812 66.0234C40.0781 65.7786 39.8177 65.5833 39.5 65.4375C39.1875 65.2865 38.8073 65.2109 38.3594 65.2109C37.9323 65.2109 37.5599 65.2995 37.2422 65.4766C36.9297 65.6536 36.6719 65.901 36.4688 66.2188C36.2656 66.5312 36.1146 66.8984 36.0156 67.3203C35.9167 67.7422 35.8672 68.2005 35.8672 68.6953ZM45.2188 64.5469V73H44.2891V64.5469H45.2188ZM44.125 62.1016C44.125 61.9245 44.1797 61.776 44.2891 61.6562C44.4036 61.5312 44.5599 61.4688 44.7578 61.4688C44.9557 61.4688 45.112 61.5312 45.2266 61.6562C45.3464 61.776 45.4062 61.9245 45.4062 62.1016C45.4062 62.2734 45.3464 62.4219 45.2266 62.5469C45.112 62.6667 44.9557 62.7266 44.7578 62.7266C44.5599 62.7266 44.4036 62.6667 44.2891 62.5469C44.1797 62.4219 44.125 62.2734 44.125 62.1016ZM50.9688 64.5469V65.3125H46.7344V64.5469H50.9688ZM48.2891 62.375H49.2188V70.9453C49.2188 71.3359 49.2708 71.6302 49.375 71.8281C49.4792 72.026 49.6146 72.1589 49.7812 72.2266C49.9479 72.2943 50.1276 72.3281 50.3203 72.3281C50.4609 72.3281 50.5964 72.3203 50.7266 72.3047C50.8568 72.2839 50.974 72.263 51.0781 72.2422L51.1172 73.0312C51.0026 73.0677 50.8542 73.0964 50.6719 73.1172C50.4896 73.1432 50.3073 73.1562 50.125 73.1562C49.7656 73.1562 49.4479 73.0911 49.1719 72.9609C48.8958 72.8255 48.6797 72.5964 48.5234 72.2734C48.3672 71.9453 48.2891 71.5 48.2891 70.9375V62.375ZM58.0703 71.4844V67.125C58.0703 66.724 57.987 66.3776 57.8203 66.0859C57.6536 65.7943 57.4089 65.5703 57.0859 65.4141C56.763 65.2578 56.3646 65.1797 55.8906 65.1797C55.4531 65.1797 55.0625 65.2578 54.7188 65.4141C54.3802 65.5651 54.112 65.7708 53.9141 66.0312C53.7214 66.2865 53.625 66.5703 53.625 66.8828L52.6875 66.875C52.6875 66.5573 52.7656 66.25 52.9219 65.9531C53.0781 65.6562 53.2995 65.3906 53.5859 65.1562C53.8724 64.9219 54.2135 64.737 54.6094 64.6016C55.0104 64.4609 55.4505 64.3906 55.9297 64.3906C56.5339 64.3906 57.0651 64.4922 57.5234 64.6953C57.987 64.8984 58.349 65.2031 58.6094 65.6094C58.8698 66.0156 59 66.526 59 67.1406V71.2266C59 71.5182 59.0208 71.8203 59.0625 72.1328C59.1094 72.4453 59.1745 72.7031 59.2578 72.9062V73H58.2656C58.2031 72.8125 58.1536 72.5781 58.1172 72.2969C58.0859 72.0104 58.0703 71.7396 58.0703 71.4844ZM58.2891 68.0781L58.3047 68.7969H56.4688C55.9896 68.7969 55.5599 68.8411 55.1797 68.9297C54.8047 69.013 54.487 69.138 54.2266 69.3047C53.9661 69.4661 53.7656 69.6615 53.625 69.8906C53.4896 70.1198 53.4219 70.3802 53.4219 70.6719C53.4219 70.974 53.4974 71.25 53.6484 71.5C53.8047 71.75 54.0234 71.9505 54.3047 72.1016C54.5911 72.2474 54.9297 72.3203 55.3203 72.3203C55.8411 72.3203 56.2995 72.224 56.6953 72.0312C57.0964 71.8385 57.4271 71.5859 57.6875 71.2734C57.9479 70.9609 58.1224 70.6198 58.2109 70.25L58.6172 70.7891C58.5495 71.0495 58.4245 71.3177 58.2422 71.5938C58.0651 71.8646 57.8333 72.1198 57.5469 72.3594C57.2604 72.5938 56.9219 72.7865 56.5312 72.9375C56.1458 73.0833 55.7083 73.1562 55.2188 73.1562C54.6667 73.1562 54.1849 73.0521 53.7734 72.8438C53.3672 72.6354 53.0495 72.3516 52.8203 71.9922C52.5964 71.6276 52.4844 71.2161 52.4844 70.7578C52.4844 70.3411 52.5729 69.9688 52.75 69.6406C52.9271 69.3073 53.1823 69.026 53.5156 68.7969C53.8542 68.5625 54.2604 68.3854 54.7344 68.2656C55.2135 68.1406 55.75 68.0781 56.3438 68.0781H58.2891ZM62.5469 61V73H61.6172V61H62.5469ZM75.6641 70.2031C75.6641 69.8906 75.612 69.612 75.5078 69.3672C75.4036 69.1224 75.2318 68.9036 74.9922 68.7109C74.7578 68.513 74.4401 68.3307 74.0391 68.1641C73.6432 67.9922 73.1484 67.8229 72.5547 67.6562C71.987 67.4948 71.474 67.3177 71.0156 67.125C70.5573 66.9323 70.1641 66.7109 69.8359 66.4609C69.513 66.2109 69.2656 65.9193 69.0938 65.5859C68.9219 65.2474 68.8359 64.8542 68.8359 64.4062C68.8359 63.9688 68.9297 63.5703 69.1172 63.2109C69.3047 62.8516 69.5677 62.5417 69.9062 62.2812C70.25 62.0208 70.6536 61.8203 71.1172 61.6797C71.5859 61.5391 72.099 61.4688 72.6562 61.4688C73.4531 61.4688 74.1406 61.6198 74.7188 61.9219C75.3021 62.224 75.7526 62.6328 76.0703 63.1484C76.3932 63.6589 76.5547 64.2318 76.5547 64.8672H75.5938C75.5938 64.3724 75.4766 63.9323 75.2422 63.5469C75.013 63.1562 74.6797 62.8516 74.2422 62.6328C73.8099 62.4089 73.2812 62.2969 72.6562 62.2969C72.0312 62.2969 71.5052 62.3932 71.0781 62.5859C70.6562 62.7734 70.3359 63.026 70.1172 63.3438C69.9036 63.6562 69.7969 64.0052 69.7969 64.3906C69.7969 64.6615 69.849 64.9115 69.9531 65.1406C70.0573 65.3646 70.2266 65.5755 70.4609 65.7734C70.7005 65.9661 71.0156 66.1484 71.4062 66.3203C71.7969 66.487 72.2786 66.6458 72.8516 66.7969C73.4557 66.9635 73.9922 67.1484 74.4609 67.3516C74.9297 67.5547 75.3255 67.7891 75.6484 68.0547C75.9714 68.3151 76.2161 68.6198 76.3828 68.9688C76.5495 69.3177 76.6328 69.724 76.6328 70.1875C76.6328 70.651 76.5339 71.0677 76.3359 71.4375C76.1432 71.8021 75.8698 72.112 75.5156 72.3672C75.1667 72.6224 74.7526 72.8177 74.2734 72.9531C73.7995 73.0885 73.2812 73.1562 72.7188 73.1562C72.2135 73.1562 71.7109 73.0911 71.2109 72.9609C70.7109 72.8307 70.2526 72.6302 69.8359 72.3594C69.4245 72.0833 69.0938 71.7292 68.8438 71.2969C68.599 70.8646 68.4766 70.349 68.4766 69.75H69.4297C69.4297 70.2292 69.526 70.6328 69.7188 70.9609C69.9115 71.2891 70.1667 71.5547 70.4844 71.7578C70.8073 71.9609 71.1615 72.1094 71.5469 72.2031C71.9375 72.2917 72.3281 72.3359 72.7188 72.3359C73.3177 72.3359 73.8359 72.2474 74.2734 72.0703C74.7161 71.8932 75.0573 71.6458 75.2969 71.3281C75.5417 71.0052 75.6641 70.6302 75.6641 70.2031ZM77.9766 68.9062V68.6484C77.9766 68.0339 78.0651 67.4661 78.2422 66.9453C78.4193 66.4245 78.6719 65.974 79 65.5938C79.3333 65.2135 79.7318 64.9193 80.1953 64.7109C80.6589 64.4974 81.1745 64.3906 81.7422 64.3906C82.3151 64.3906 82.8333 64.4974 83.2969 64.7109C83.7604 64.9193 84.1589 65.2135 84.4922 65.5938C84.8255 65.974 85.0807 66.4245 85.2578 66.9453C85.4349 67.4661 85.5234 68.0339 85.5234 68.6484V68.9062C85.5234 69.5208 85.4349 70.0885 85.2578 70.6094C85.0807 71.125 84.8255 71.5729 84.4922 71.9531C84.1641 72.3333 83.7682 72.6302 83.3047 72.8438C82.8411 73.0521 82.3255 73.1562 81.7578 73.1562C81.1849 73.1562 80.6667 73.0521 80.2031 72.8438C79.7396 72.6302 79.3411 72.3333 79.0078 71.9531C78.6745 71.5729 78.4193 71.125 78.2422 70.6094C78.0651 70.0885 77.9766 69.5208 77.9766 68.9062ZM78.9062 68.6484V68.9062C78.9062 69.3698 78.9688 69.8099 79.0938 70.2266C79.2188 70.638 79.401 71.0052 79.6406 71.3281C79.8802 71.6458 80.1771 71.8958 80.5312 72.0781C80.8854 72.2604 81.2943 72.3516 81.7578 72.3516C82.2161 72.3516 82.6198 72.2604 82.9688 72.0781C83.3229 71.8958 83.6198 71.6458 83.8594 71.3281C84.099 71.0052 84.2786 70.638 84.3984 70.2266C84.5234 69.8099 84.5859 69.3698 84.5859 68.9062V68.6484C84.5859 68.1901 84.5234 67.7552 84.3984 67.3438C84.2786 66.9323 84.0964 66.5651 83.8516 66.2422C83.612 65.9193 83.3151 65.6641 82.9609 65.4766C82.6068 65.2891 82.2005 65.1953 81.7422 65.1953C81.2839 65.1953 80.8776 65.2891 80.5234 65.4766C80.1745 65.6641 79.8776 65.9193 79.6328 66.2422C79.3932 66.5651 79.2109 66.9323 79.0859 67.3438C78.9661 67.7552 78.9062 68.1901 78.9062 68.6484ZM88.5 61V73H87.5703V61H88.5ZM96.4688 71.0469V64.5469H97.4062V73H96.5078L96.4688 71.0469ZM96.6406 69.4844L97.125 69.4688C97.125 70 97.0625 70.4896 96.9375 70.9375C96.8125 71.3854 96.6172 71.776 96.3516 72.1094C96.0859 72.4427 95.7422 72.7005 95.3203 72.8828C94.8984 73.0651 94.3906 73.1562 93.7969 73.1562C93.3854 73.1562 93.0078 73.099 92.6641 72.9844C92.3255 72.8646 92.0339 72.6771 91.7891 72.4219C91.5443 72.1667 91.3542 71.8359 91.2188 71.4297C91.0885 71.0234 91.0234 70.5312 91.0234 69.9531V64.5469H91.9531V69.9688C91.9531 70.4219 92.0026 70.7995 92.1016 71.1016C92.2057 71.4036 92.3464 71.6458 92.5234 71.8281C92.7057 72.0104 92.9141 72.1406 93.1484 72.2188C93.3828 72.2969 93.6354 72.3359 93.9062 72.3359C94.5938 72.3359 95.1354 72.2031 95.5312 71.9375C95.9323 71.6719 96.2161 71.3229 96.3828 70.8906C96.5547 70.4531 96.6406 69.9844 96.6406 69.4844ZM103.047 64.5469V65.3125H98.8125V64.5469H103.047ZM100.367 62.375H101.297V70.9453C101.297 71.3359 101.349 71.6302 101.453 71.8281C101.557 72.026 101.693 72.1589 101.859 72.2266C102.026 72.2943 102.206 72.3281 102.398 72.3281C102.539 72.3281 102.674 72.3203 102.805 72.3047C102.935 72.2839 103.052 72.263 103.156 72.2422L103.195 73.0312C103.081 73.0677 102.932 73.0964 102.75 73.1172C102.568 73.1432 102.385 73.1562 102.203 73.1562C101.844 73.1562 101.526 73.0911 101.25 72.9609C100.974 72.8255 100.758 72.5964 100.602 72.2734C100.445 71.9453 100.367 71.5 100.367 70.9375V62.375ZM106.047 64.5469V73H105.117V64.5469H106.047ZM104.953 62.1016C104.953 61.9245 105.008 61.776 105.117 61.6562C105.232 61.5312 105.388 61.4688 105.586 61.4688C105.784 61.4688 105.94 61.5312 106.055 61.6562C106.174 61.776 106.234 61.9245 106.234 62.1016C106.234 62.2734 106.174 62.4219 106.055 62.5469C105.94 62.6667 105.784 62.7266 105.586 62.7266C105.388 62.7266 105.232 62.6667 105.117 62.5469C105.008 62.4219 104.953 62.2734 104.953 62.1016ZM108.086 68.9062V68.6484C108.086 68.0339 108.174 67.4661 108.352 66.9453C108.529 66.4245 108.781 65.974 109.109 65.5938C109.443 65.2135 109.841 64.9193 110.305 64.7109C110.768 64.4974 111.284 64.3906 111.852 64.3906C112.424 64.3906 112.943 64.4974 113.406 64.7109C113.87 64.9193 114.268 65.2135 114.602 65.5938C114.935 65.974 115.19 66.4245 115.367 66.9453C115.544 67.4661 115.633 68.0339 115.633 68.6484V68.9062C115.633 69.5208 115.544 70.0885 115.367 70.6094C115.19 71.125 114.935 71.5729 114.602 71.9531C114.273 72.3333 113.878 72.6302 113.414 72.8438C112.951 73.0521 112.435 73.1562 111.867 73.1562C111.294 73.1562 110.776 73.0521 110.312 72.8438C109.849 72.6302 109.451 72.3333 109.117 71.9531C108.784 71.5729 108.529 71.125 108.352 70.6094C108.174 70.0885 108.086 69.5208 108.086 68.9062ZM109.016 68.6484V68.9062C109.016 69.3698 109.078 69.8099 109.203 70.2266C109.328 70.638 109.51 71.0052 109.75 71.3281C109.99 71.6458 110.286 71.8958 110.641 72.0781C110.995 72.2604 111.404 72.3516 111.867 72.3516C112.326 72.3516 112.729 72.2604 113.078 72.0781C113.432 71.8958 113.729 71.6458 113.969 71.3281C114.208 71.0052 114.388 70.638 114.508 70.2266C114.633 69.8099 114.695 69.3698 114.695 68.9062V68.6484C114.695 68.1901 114.633 67.7552 114.508 67.3438C114.388 66.9323 114.206 66.5651 113.961 66.2422C113.721 65.9193 113.424 65.6641 113.07 65.4766C112.716 65.2891 112.31 65.1953 111.852 65.1953C111.393 65.1953 110.987 65.2891 110.633 65.4766C110.284 65.6641 109.987 65.9193 109.742 66.2422C109.503 66.5651 109.32 66.9323 109.195 67.3438C109.076 67.7552 109.016 68.1901 109.016 68.6484ZM118.5 66.3516V73H117.57V64.5469H118.461L118.5 66.3516ZM118.289 68.25L117.875 68.0156C117.906 67.5156 118.008 67.0469 118.18 66.6094C118.352 66.1719 118.583 65.7865 118.875 65.4531C119.172 65.1198 119.518 64.8594 119.914 64.6719C120.315 64.4844 120.758 64.3906 121.242 64.3906C121.664 64.3906 122.042 64.4479 122.375 64.5625C122.708 64.6771 122.992 64.8594 123.227 65.1094C123.461 65.3594 123.638 65.6797 123.758 66.0703C123.883 66.4609 123.945 66.9375 123.945 67.5V73H123.008V67.4922C123.008 66.9089 122.927 66.4531 122.766 66.125C122.604 65.7917 122.375 65.5547 122.078 65.4141C121.781 65.2734 121.43 65.2031 121.023 65.2031C120.576 65.2031 120.182 65.3021 119.844 65.5C119.51 65.6927 119.229 65.9453 119 66.2578C118.776 66.5651 118.604 66.8958 118.484 67.25C118.365 67.599 118.299 67.9323 118.289 68.25Z" fill="black"/>
</svg>
