<svg width="135" height="78" viewBox="0 0 135 78" fill="none" xmlns="http://www.w3.org/2000/svg">
<path d="M38.3594 46.625V50H22.3906V46.625H38.3594ZM38.0625 29.7656L24.1562 50H21.2031V47.4219L35.1719 27.25H38.0625V29.7656ZM36.5312 27.25V30.6406H21.25V27.25H36.5312ZM48.4844 50.3125C47.2031 50.3125 46.0521 50.1042 45.0312 49.6875C44.0104 49.2708 43.1406 48.6927 42.4219 47.9531C41.7135 47.2031 41.1667 46.3333 40.7812 45.3438C40.4062 44.3438 40.2188 43.2708 40.2188 42.125V41.5C40.2188 40.1979 40.4062 39.0156 40.7812 37.9531C41.1562 36.8802 41.6875 35.9583 42.375 35.1875C43.0625 34.4167 43.8854 33.8229 44.8438 33.4062C45.8021 32.9896 46.8594 32.7812 48.0156 32.7812C49.2135 32.7812 50.2708 32.9844 51.1875 33.3906C52.1042 33.7865 52.8698 34.349 53.4844 35.0781C54.099 35.8073 54.5625 36.6823 54.875 37.7031C55.1875 38.7135 55.3438 39.8333 55.3438 41.0625V42.7969H42.0938V39.9531H51.2812V39.6406C51.2604 38.9844 51.1354 38.3854 50.9062 37.8438C50.6771 37.2917 50.3229 36.8542 49.8438 36.5312C49.3646 36.1979 48.7448 36.0312 47.9844 36.0312C47.3698 36.0312 46.8333 36.1667 46.375 36.4375C45.9271 36.6979 45.5521 37.0729 45.25 37.5625C44.9583 38.0417 44.7396 38.6146 44.5938 39.2812C44.4479 39.9479 44.375 40.6875 44.375 41.5V42.125C44.375 42.8333 44.4688 43.4896 44.6562 44.0938C44.8542 44.6979 45.1406 45.224 45.5156 45.6719C45.901 46.1094 46.3594 46.4531 46.8906 46.7031C47.4323 46.9427 48.0469 47.0625 48.7344 47.0625C49.599 47.0625 50.3802 46.8958 51.0781 46.5625C51.7865 46.2188 52.401 45.7135 52.9219 45.0469L55 47.2031C54.6458 47.724 54.1667 48.224 53.5625 48.7031C52.9688 49.1823 52.25 49.5729 51.4062 49.875C50.5625 50.1667 49.5885 50.3125 48.4844 50.3125ZM62.1562 36.7031V50H58.0312V33.0938H61.9062L62.1562 36.7031ZM61.5 40.9375H60.2812C60.2917 39.7083 60.4583 38.5938 60.7812 37.5938C61.1042 36.5938 61.5573 35.7344 62.1406 35.0156C62.7344 34.2969 63.4375 33.7448 64.25 33.3594C65.0625 32.974 65.9688 32.7812 66.9688 32.7812C67.7812 32.7812 68.5156 32.8958 69.1719 33.125C69.8281 33.3542 70.3906 33.7188 70.8594 34.2188C71.3385 34.7188 71.7031 35.375 71.9531 36.1875C72.2135 36.9896 72.3438 37.9792 72.3438 39.1562V50H68.1875V39.125C68.1875 38.3542 68.0729 37.7448 67.8438 37.2969C67.625 36.849 67.3021 36.5312 66.875 36.3438C66.4583 36.1562 65.9427 36.0625 65.3281 36.0625C64.6927 36.0625 64.1354 36.1927 63.6562 36.4531C63.1875 36.7031 62.7917 37.0521 62.4688 37.5C62.1562 37.9479 61.9167 38.4635 61.75 39.0469C61.5833 39.6302 61.5 40.2604 61.5 40.9375ZM91.5 36.4062L90.8125 40.3438H79.3594L80.0469 36.4062H91.5ZM83.2188 27.25L79.2656 50H74.3125L78.25 27.25H83.2188ZM96.5 27.25L92.5469 50H87.6094L91.5469 27.25H96.5ZM97.125 41.7188V41.3906C97.125 40.151 97.3021 39.0104 97.6562 37.9688C98.0104 36.9167 98.526 36.0052 99.2031 35.2344C99.8802 34.4635 100.708 33.8646 101.688 33.4375C102.667 33 103.781 32.7812 105.031 32.7812C106.302 32.7812 107.427 33 108.406 33.4375C109.396 33.8646 110.229 34.4635 110.906 35.2344C111.583 36.0052 112.099 36.9167 112.453 37.9688C112.807 39.0104 112.984 40.151 112.984 41.3906V41.7188C112.984 42.9479 112.807 44.0885 112.453 45.1406C112.099 46.1823 111.583 47.0938 110.906 47.875C110.229 48.6458 109.401 49.2448 108.422 49.6719C107.443 50.099 106.323 50.3125 105.062 50.3125C103.812 50.3125 102.693 50.099 101.703 49.6719C100.714 49.2448 99.8802 48.6458 99.2031 47.875C98.526 47.0938 98.0104 46.1823 97.6562 45.1406C97.3021 44.0885 97.125 42.9479 97.125 41.7188ZM101.25 41.3906V41.7188C101.25 42.4583 101.323 43.151 101.469 43.7969C101.615 44.4427 101.839 45.0104 102.141 45.5C102.443 45.9896 102.833 46.375 103.312 46.6562C103.802 46.9271 104.385 47.0625 105.062 47.0625C105.729 47.0625 106.302 46.9271 106.781 46.6562C107.26 46.375 107.651 45.9896 107.953 45.5C108.266 45.0104 108.495 44.4427 108.641 43.7969C108.786 43.151 108.859 42.4583 108.859 41.7188V41.3906C108.859 40.6615 108.786 39.9792 108.641 39.3438C108.495 38.6979 108.266 38.1302 107.953 37.6406C107.651 37.1406 107.255 36.75 106.766 36.4688C106.286 36.1771 105.708 36.0312 105.031 36.0312C104.365 36.0312 103.792 36.1771 103.312 36.4688C102.833 36.75 102.443 37.1406 102.141 37.6406C101.839 38.1302 101.615 38.6979 101.469 39.3438C101.323 39.9792 101.25 40.6615 101.25 41.3906Z" fill="white"/>
</svg>
